<?xml version="1.0" encoding="UTF-8" standalone="no"?>
<svg
   xmlns:dc="http://purl.org/dc/elements/1.1/"
   xmlns:cc="http://creativecommons.org/ns#"
   xmlns:rdf="http://www.w3.org/1999/02/22-rdf-syntax-ns#"
   xmlns:svg="http://www.w3.org/2000/svg"
   xmlns="http://www.w3.org/2000/svg"
   xmlns:sodipodi="http://sodipodi.sourceforge.net/DTD/sodipodi-0.dtd"
   xmlns:inkscape="http://www.inkscape.org/namespaces/inkscape"
   width="512"
   height="512"
   viewBox="0 0 135.46666 135.46667"
   version="1.1"
   id="svg8"
   inkscape:version="1.0.2-2 (e86c870879, 2021-01-15)"
   sodipodi:docname="robosharks-logo-icon.svg"
   inkscape:export-filename="/Users/amitanbar-evan/DerpyDerp/Robotics/2021-MATE/SharkDesign.png"
   inkscape:export-xdpi="96"
   inkscape:export-ydpi="96">
  <defs
     id="defs2">
    <inkscape:path-effect
       lpeversion="1"
       is_visible="true"
       id="path-effect1715"
       effect="spiro" />
    <inkscape:path-effect
       lpeversion="1"
       is_visible="true"
       id="path-effect956"
       effect="spiro" />
    <inkscape:path-effect
       lpeversion="1"
       is_visible="true"
       id="path-effect128"
       effect="spiro" />
    <inkscape:path-effect
       lpeversion="1"
       is_visible="true"
       id="path-effect124"
       effect="spiro" />
    <inkscape:path-effect
       effect="spiro"
       id="path-effect1139"
       is_visible="true"
       lpeversion="1" />
    <inkscape:path-effect
       effect="spiro"
       id="path-effect1135"
       is_visible="true"
       lpeversion="1" />
    <inkscape:path-effect
       effect="spiro"
       id="path-effect1115"
       is_visible="true"
       lpeversion="1" />
    <inkscape:path-effect
       effect="spiro"
       id="path-effect982"
       is_visible="true"
       lpeversion="1" />
    <inkscape:path-effect
       effect="spiro"
       id="path-effect972"
       is_visible="true"
       lpeversion="1" />
    <inkscape:path-effect
       lpeversion="1"
       is_visible="true"
       id="path-effect1319"
       effect="spiro" />
    <inkscape:path-effect
       lpeversion="1"
       is_visible="true"
       id="path-effect1315"
       effect="spiro" />
    <inkscape:path-effect
       lpeversion="1"
       is_visible="true"
       id="path-effect1311"
       effect="spiro" />
    <inkscape:path-effect
       lpeversion="1"
       is_visible="true"
       id="path-effect1307"
       effect="spiro" />
    <inkscape:path-effect
       lpeversion="1"
       is_visible="true"
       id="path-effect1303"
       effect="spiro" />
    <inkscape:path-effect
       lpeversion="1"
       is_visible="true"
       id="path-effect1252"
       effect="spiro" />
    <inkscape:path-effect
       lpeversion="1"
       is_visible="true"
       id="path-effect1248"
       effect="spiro" />
    <inkscape:path-effect
       lpeversion="1"
       is_visible="true"
       id="path-effect1244"
       effect="spiro" />
    <inkscape:path-effect
       lpeversion="1"
       is_visible="true"
       id="path-effect1240"
       effect="spiro" />
    <inkscape:path-effect
       lpeversion="1"
       is_visible="true"
       id="path-effect1236"
       effect="spiro" />
    <inkscape:path-effect
       lpeversion="1"
       is_visible="true"
       id="path-effect1232"
       effect="spiro" />
    <inkscape:path-effect
       lpeversion="1"
       is_visible="true"
       id="path-effect1228"
       effect="spiro" />
    <inkscape:path-effect
       lpeversion="1"
       is_visible="true"
       id="path-effect1224"
       effect="spiro" />
    <inkscape:path-effect
       lpeversion="1"
       is_visible="true"
       id="path-effect1203"
       effect="spiro" />
    <inkscape:path-effect
       lpeversion="1"
       is_visible="true"
       id="path-effect1149"
       effect="spiro" />
    <inkscape:path-effect
       lpeversion="1"
       is_visible="true"
       id="path-effect1144"
       effect="spiro" />
    <inkscape:path-effect
       lpeversion="1"
       is_visible="true"
       id="path-effect1124"
       effect="spiro" />
    <inkscape:path-effect
       lpeversion="1"
       is_visible="true"
       id="path-effect1118"
       effect="spiro" />
    <inkscape:path-effect
       lpeversion="1"
       is_visible="true"
       id="path-effect1114"
       effect="spiro" />
    <inkscape:path-effect
       lpeversion="1"
       is_visible="true"
       id="path-effect1110"
       effect="spiro" />
    <inkscape:path-effect
       lpeversion="1"
       is_visible="true"
       id="path-effect1106"
       effect="spiro" />
    <inkscape:path-effect
       lpeversion="1"
       is_visible="true"
       id="path-effect1082"
       effect="spiro" />
    <inkscape:path-effect
       lpeversion="1"
       is_visible="true"
       id="path-effect951"
       effect="spiro" />
    <inkscape:path-effect
       lpeversion="1"
       is_visible="true"
       id="path-effect109"
       effect="spiro" />
    <inkscape:path-effect
       effect="spiro"
       id="path-effect1256"
       is_visible="true"
       lpeversion="1" />
    <inkscape:path-effect
       effect="spiro"
       id="path-effect1245"
       is_visible="true"
       lpeversion="1" />
    <inkscape:path-effect
       effect="spiro"
       id="path-effect1201"
       is_visible="true"
       lpeversion="1" />
    <inkscape:path-effect
       lpeversion="1"
       is_visible="true"
       id="path-effect1147"
       effect="spiro" />
    <inkscape:path-effect
       lpeversion="1"
       is_visible="true"
       id="path-effect1105"
       effect="spiro" />
    <inkscape:path-effect
       effect="spiro"
       id="path-effect1008"
       is_visible="true"
       lpeversion="1" />
    <inkscape:path-effect
       effect="spiro"
       id="path-effect931"
       is_visible="true"
       lpeversion="1" />
    <inkscape:path-effect
       effect="spiro"
       id="path-effect927"
       is_visible="true"
       lpeversion="1" />
    <inkscape:path-effect
       effect="spiro"
       id="path-effect923"
       is_visible="true"
       lpeversion="1" />
    <inkscape:path-effect
       effect="spiro"
       id="path-effect919"
       is_visible="true"
       lpeversion="1" />
    <inkscape:path-effect
       effect="spiro"
       id="path-effect915"
       is_visible="true"
       lpeversion="1" />
    <inkscape:path-effect
       effect="spiro"
       id="path-effect83"
       is_visible="true"
       lpeversion="1" />
    <inkscape:path-effect
       effect="spiro"
       id="path-effect79"
       is_visible="true"
       lpeversion="1" />
    <inkscape:path-effect
       effect="spiro"
       id="path-effect75"
       is_visible="true"
       lpeversion="1" />
    <inkscape:path-effect
       effect="spiro"
       id="path-effect70"
       is_visible="true"
       lpeversion="1" />
    <inkscape:path-effect
       effect="spiro"
       id="path-effect66"
       is_visible="true"
       lpeversion="1" />
    <inkscape:path-effect
       effect="spiro"
       id="path-effect62"
       is_visible="true"
       lpeversion="1" />
    <inkscape:path-effect
       effect="spiro"
       id="path-effect10"
       is_visible="true"
       lpeversion="0" />
    <inkscape:path-effect
       lpeversion="1"
       is_visible="true"
       id="path-effect337"
       effect="spiro" />
    <inkscape:path-effect
       lpeversion="1"
       is_visible="true"
       id="path-effect332"
       effect="spiro" />
    <inkscape:path-effect
       lpeversion="1"
       is_visible="true"
       id="path-effect328"
       effect="spiro" />
    <inkscape:path-effect
       lpeversion="1"
       is_visible="true"
       id="path-effect324"
       effect="spiro" />
    <inkscape:path-effect
       lpeversion="1"
       is_visible="true"
       id="path-effect320"
       effect="spiro" />
    <inkscape:path-effect
       lpeversion="1"
       is_visible="true"
       id="path-effect316"
       effect="spiro" />
    <inkscape:path-effect
       lpeversion="1"
       is_visible="true"
       id="path-effect312"
       effect="spiro" />
    <inkscape:path-effect
       lpeversion="1"
       is_visible="true"
       id="path-effect201"
       effect="spiro" />
    <inkscape:path-effect
       lpeversion="1"
       is_visible="true"
       id="path-effect196"
       effect="spiro" />
    <inkscape:path-effect
       lpeversion="1"
       is_visible="true"
       id="path-effect192"
       effect="spiro" />
    <inkscape:path-effect
       lpeversion="1"
       is_visible="true"
       id="path-effect188"
       effect="spiro" />
    <inkscape:path-effect
       lpeversion="1"
       is_visible="true"
       id="path-effect184"
       effect="spiro" />
    <inkscape:path-effect
       lpeversion="1"
       is_visible="true"
       id="path-effect180"
       effect="spiro" />
    <inkscape:path-effect
       lpeversion="1"
       is_visible="true"
       id="path-effect74"
       effect="spiro" />
    <inkscape:path-effect
       lpeversion="1"
       is_visible="true"
       id="path-effect65"
       effect="spiro" />
    <inkscape:path-effect
       lpeversion="1"
       is_visible="true"
       id="path-effect61"
       effect="spiro" />
    <inkscape:path-effect
       lpeversion="1"
       is_visible="true"
       id="path-effect53"
       effect="spiro" />
    <inkscape:path-effect
       lpeversion="1"
       is_visible="true"
       id="path-effect45"
       effect="spiro" />
    <inkscape:path-effect
       lpeversion="1"
       is_visible="true"
       id="path-effect22"
       effect="spiro" />
    <inkscape:path-effect
       effect="spiro"
       id="path-effect26"
       is_visible="true"
       lpeversion="1" />
  </defs>
  <sodipodi:namedview
     inkscape:object-nodes="false"
     inkscape:snap-intersection-paths="true"
     inkscape:snap-midpoints="true"
     inkscape:snap-nodes="true"
     inkscape:snap-smooth-nodes="true"
     inkscape:object-paths="true"
     id="base"
     pagecolor="#ffffff"
     bordercolor="#666666"
     borderopacity="1.0"
     inkscape:pageopacity="0.0"
     inkscape:pageshadow="2"
     inkscape:zoom="1.0779943"
     inkscape:cx="187.60792"
     inkscape:cy="274.05065"
     inkscape:document-units="px"
     inkscape:current-layer="layer3"
     inkscape:document-rotation="0"
     showgrid="false"
     inkscape:window-width="1920"
     inkscape:window-height="1027"
     inkscape:window-x="1592"
     inkscape:window-y="-8"
     inkscape:window-maximized="1"
     units="px" />
  <metadata
     id="metadata5">
    <rdf:RDF>
      <cc:Work
         rdf:about="">
        <dc:format>image/svg+xml</dc:format>
        <dc:type
           rdf:resource="http://purl.org/dc/dcmitype/StillImage" />
        <dc:title />
      </cc:Work>
    </rdf:RDF>
  </metadata>
  <g
     style="display:inline;opacity:1"
     inkscape:label="Main Shark + Thruster"
     id="layer3"
     inkscape:groupmode="layer">
    <rect
       style="fill:#3f3b47;fill-opacity:1;stroke:none;stroke-width:1;stroke-miterlimit:4;stroke-dasharray:none;stroke-opacity:1"
       id="rect974"
       width="135.46666"
       height="135.46666"
       x="-2.7755576e-17"
       y="0" />
    <g
       id="g972"
       transform="translate(8.202083,25.264457)"
       style="stroke-width:1.93198748;stroke-miterlimit:4;stroke-dasharray:none;stroke:#ffffff;stroke-opacity:1">
      <path
         id="path970"
         style="fill:none;stroke:#ffffff;stroke-width:1.93198748;stroke-linecap:round;stroke-linejoin:round;stroke-miterlimit:4;stroke-dasharray:none;stroke-opacity:1"
         d="m 62.534274,9.7601905 c 0.569582,0.1437143 1.167724,0.1734756 1.748817,0.087011 0.992725,-0.1477285 1.930445,-0.6419347 2.613463,-1.3773499 M 60.140397,6.406533 C 60.282683,5.9323037 60.320058,5.4269361 60.249243,4.9369191 60.166989,4.3678615 59.938078,3.8206241 59.590704,3.3624594 m 3.039812,4.2683841 C 63.484088,7.1017103 64.213077,6.3728811 64.742297,5.519353 65.618236,4.1067338 65.926049,2.3525621 65.583411,0.72611131 M 58.005593,11.626589 c -0.605354,0.983815 -1.031411,2.077597 -1.250997,3.211684 -0.281804,1.455378 -0.22097,2.975954 0.176091,4.404186 m 3.278121,-6.564366 c -0.0459,0.628632 0.02477,1.265539 0.206836,1.868963 0.294408,0.975684 0.884827,1.859914 1.673193,2.505804 m 0.541169,-9.4214847 c 0.051,0.1688566 0.08415,0.3422666 0.105276,0.5172285 0.04007,0.3354764 0.01676,0.6766575 -0.04298,1.0085932 -0.08641,0.4647143 -0.25441,0.911594 -0.462121,1.336281 -0.15846,0.323907 -0.340525,0.63626 -0.544738,0.933414 -0.209459,0.305154 -0.445291,0.596146 -0.733142,0.828889 -0.229276,0.184936 -0.489078,0.33136 -0.766365,0.430611 L 57.72357,11.489519 c -0.05974,-0.029 -0.117806,-0.0612 -0.172229,-0.09797 -0.200061,-0.133593 -0.379212,-0.295791 -0.552316,-0.46279 -0.268763,-0.259291 -0.52514,-0.531726 -0.759516,-0.822506 C 55.839534,9.6101015 55.504254,9.0598332 55.267548,8.4681249 55.191924,8.2792478 55.126937,8.086196 55.076011,7.8892391 c -0.0408,-0.1548027 -0.06994,-0.3135324 -0.06848,-0.4733914 0.0073,-0.097451 0.0153,-0.1932706 0.03351,-0.2889878 0.0153,-0.066298 0.02331,-0.1336821 0.04881,-0.1966144 0.03934,-0.081999 0.09107,-0.1588608 0.158679,-0.2208606 0.051,-0.047137 0.108554,-0.0879 0.165527,-0.126892 0.122688,-0.083091 0.250622,-0.1590502 0.385622,-0.2205401 0.186437,-0.085073 0.384603,-0.1415504 0.584081,-0.188899 0.227162,-0.054059 0.457239,-0.096431 0.688919,-0.1250123 0.41593,-0.051436 0.836596,-0.058503 1.255295,-0.037593 0.431959,0.021274 0.864719,0.072418 1.281378,0.1888335 0.107607,0.030089 0.214049,0.06455 0.31896,0.103061 l 2.702711,1.327969 z m -5.790679,11.5662997 6.764607,3.315277 c 3.461352,-1.387506 5.998536,-4.349166 7.635666,-7.699778 1.650679,-3.36715 2.361819,-7.1026997 1.308698,-10.7017774 L 65.580351,0.72459957 M 57.667763,5.9593476 c 0.349778,-0.5703545 0.717916,-1.105498 1.097564,-1.6012997 0.380305,-0.4955029 0.7711,-0.9520211 1.168161,-1.3639956 0.397134,-0.4119817 0.800023,-0.779682 1.203131,-1.0983945 0.402744,-0.3187249 0.805415,-0.5884568 1.201747,-0.8044653 0.396697,-0.21605215 0.786983,-0.3783882 1.16532,-0.48222875 0.378337,-0.10384056 0.744362,-0.14937508 1.092391,-0.13166397 0.348102,0.017631 0.678355,0.0985294 0.984274,0.24724879 2.447644,1.18978933 2.430451,6.27297143 -0.03861,11.35361843 -2.469428,5.080618 -6.455702,8.234732 -8.903638,7.044984 -0.305919,-0.148712 -0.573516,-0.358258 -0.802354,-0.621076 -0.229057,-0.262804 -0.419428,-0.578755 -0.571477,-0.940379 -0.15183,-0.361704 -0.26563,-0.768863 -0.340525,-1.21414 -0.07468,-0.445254 -0.11227,-0.928474 -0.114091,-1.441805 0,-0.5136 0.04153,-1.057734 0.120138,-1.624555 0.07839,-0.566777 0.195471,-1.156467 0.350871,-1.761253 0.155837,-0.604531 0.349049,-1.224798 0.58102,-1.8523223 M 71.6438,17.197442 c 0.631874,-1.149539 1.358516,-2.246856 2.16911,-3.278172 0.405294,-0.515662 0.434123,-0.588656 0.880048,-1.069602 m 2.247423,-2.203908 c 0.58368,-0.534145 0.739357,-0.6478064 1.372994,-1.1215548 0.633636,-0.4737411 1.290615,-0.9162929 1.967659,-1.3256665 1.354073,-0.8187543 2.788395,-1.5047886 4.276718,-2.0422562 -0.653365,1.3866466 -1.217265,2.8153741 -1.687844,4.2742055 -0.235293,0.729419 -0.577552,1.995548 -0.765701,2.738519 m -0.755713,4.034285 c -0.09935,0.980624 -0.184025,2.573589 -0.202508,3.559073 -0.03694,1.970974 0.08793,3.944979 0.37516,5.89527 M 14.464394,26.62434 c -0.329379,-0.334988 -0.571695,-0.754773 -0.697152,-1.207488 -0.153069,-0.552388 -0.129828,-1.152213 0.06557,-1.691086 m 15.96105,-0.885658 c 0.145201,0.214632 0.249967,0.456555 0.307158,0.709319 0.0357,0.160128 0.05318,0.324533 0.051,0.488683 0.291639,0.0015 0.583206,0.01027 0.874481,0.02572 0.517563,0.02739 1.034034,0.07651 1.547518,0.147095 m -20.40624,-3.217381 c 0.265339,0.372705 0.575702,0.71334 0.922129,1.012126 0.377244,0.325262 0.797182,0.600845 1.245679,0.817421 -0.189643,-0.379539 -0.321365,-0.7879 -0.389339,-1.206672 -0.08794,-0.54189 -0.06848,-1.100981 0.05683,-1.635454 0.158388,0.458434 0.38249,0.894094 0.663347,1.289501 0.379284,0.533869 0.862388,0.993687 1.414266,1.346139 -0.114091,-0.455243 -0.148771,-0.930259 -0.102143,-1.397261 0.04736,-0.478076 0.180754,-0.947512 0.390868,-1.379558 0.171938,0.411967 0.396114,0.802093 0.665533,1.158034 0.47079,0.622053 1.080807,1.138166 1.772203,1.499506 -0.07213,-0.381207 -0.08408,-0.773882 -0.03424,-1.158704 0.05246,-0.407311 0.173978,-0.805655 0.357428,-1.1731 0.315463,0.623859 0.773795,1.175009 1.329535,1.599099 0.452941,0.34556 0.969849,0.606928 1.516627,0.766787 -0.05391,-0.222959 -0.08291,-0.452139 -0.08524,-0.68159 -0.0073,-0.38665 0.06703,-0.773904 0.209094,-1.133714 l 1.324435,1.048517 c 0.5121,0.405411 1.05101,0.785729 1.652867,1.039419 v -0.460067 c 0,-0.09637 0,-0.19327 0.01749,-0.288178 0.01676,-0.0949 0.04954,-0.187675 0.102872,-0.267977 0.05318,-0.0803 0.126841,-0.147422 0.212956,-0.190705 0.08611,-0.04328 0.184178,-0.06251 0.280274,-0.05442 0.305919,0.520456 0.728115,0.972144 1.226736,1.312494 0.334843,0.228547 0.703636,0.407188 1.090497,0.52823 0.150155,-0.128248 0.316702,-0.237334 0.494177,-0.323755 0.397862,-0.193627 0.851459,-0.270773 1.290922,-0.219527 m -14.191834,2.693713 c 0.084,-0.275713 0.170772,-0.55056 0.260457,-0.824481 0.106442,-0.325655 0.217036,-0.65 0.331564,-0.97293 0.416368,0.439069 0.855612,0.856274 1.315693,1.249328 0.546487,0.46701 1.106525,0.95538 1.706925,1.350802 l 0.05246,-0.854956 -0.216453,-1.748227 c 0.446384,0.475249 0.919068,0.925706 1.415213,1.34863 0.473486,0.403531 0.968318,0.781992 1.481729,1.133249 0.04736,-0.444191 0.02477,-0.895799 -0.0663,-1.333047 -0.09952,-0.475395 -0.280566,-0.933625 -0.532863,-1.34863 0.59581,0.376887 1.184334,0.765482 1.764918,1.165487 0.713471,0.491576 1.415213,1.000389 2.104059,1.525836 0.06411,-0.366025 0.09617,-0.737914 0.09369,-1.109593 -0.0073,-0.510729 -0.07067,-1.021 -0.199769,-1.515126 0.477566,0.488902 0.97779,0.955751 1.498413,1.39858 0.540294,0.459549 1.037677,0.869979 1.619426,1.27579 0.114237,-0.312709 0.26206,-0.613631 0.311893,-0.942798 0.04954,-0.330209 0.0663,-0.665438 0.04954,-0.998984 0.417387,0.16979 0.814958,0.38818 1.182149,0.649337 0.550712,0.391699 1.019754,0.853536 1.403993,1.409472 0.146876,-0.193686 0.287487,-0.375212 0.394147,-0.593639 0.08648,-0.177067 0.158897,-0.360983 0.216525,-0.549438 0.247344,0.141485 0.486455,0.297221 0.715949,0.466186 0.339214,0.249821 0.654968,0.509805 0.946899,0.813495 M 13.83303,23.725766 c 0.459644,0.486658 0.926063,0.966876 1.399112,1.440493 0.427733,0.428236 0.816999,0.896695 1.255368,1.313981 m 19.43712,0.24252 c -3.559634,-0.314705 -7.132309,-0.480852 -10.705712,-0.497856 -3.588193,-0.01712 -7.177114,0.116219 -10.754233,0.399436 v 0 m -2.368232,-4.199332 c -0.11125,-0.223469 -0.163997,-0.475766 -0.151539,-0.725091 0.01239,-0.249326 0.09012,-0.49511 0.223156,-0.706354 0.149717,-0.237734 0.366389,-0.428709 0.607248,-0.573246 0.240932,-0.144538 0.506125,-0.244568 0.775544,-0.324294 1.320282,-0.390773 2.731925,-0.301737 4.098981,-0.13664 2.116153,0.255569 4.207753,0.684337 6.285147,1.161393 2.366703,0.543471 4.735226,1.156023 6.934215,2.186138 1.849139,0.866277 3.561674,2.023415 5.055425,3.415846 M 92.26467,55.548747 C 92.403022,52.401205 92.2195,49.078263 91.601469,45.988895 90.697991,41.472432 88.987787,37.114407 86.539415,33.213112 84.6419,30.189642 82.3169,27.455815 79.870247,24.856617 78.957225,23.886666 78.024933,22.93294 77.07069,22.001923 76.593576,21.536415 75.742277,20.797787 75.253848,20.344445 M 72.509379,17.912472 C 71.845456,17.369657 70.983368,16.67268 70.456989,16.265558 M 55.163292,8.0719819 C 54.323563,7.7426544 54.122992,7.6465948 53.273208,7.3427156 51.573496,6.7349352 49.856225,6.1753342 48.131669,5.65278 42.652154,3.9924531 37.043176,2.6848038 31.338393,2.1976937 26.878779,1.8169107 22.393155,1.4913987 17.919699,1.3477209 13.204435,1.1962811 8.4943448,1.1968465 3.7780617,1.3138359 3.2527027,1.3268479 2.7225352,1.3476043 2.2140785,1.4804274 1.7055491,1.613244 1.2143591,1.86827 0.88541775,2.2780384 0.58059149,2.6576943 0.43291394,3.1597761 0.48362118,3.6440084 0.52660576,4.7550871 0.6887815,5.8615176 0.96570421,6.9383907 1.3170121,8.3043901 1.8519881,9.6189024 2.4923855,10.875582 4.8472851,14.5719 9.0194124,20.384071 12.096453,22.425008 m 70.425724,38.788663 c 0.719227,0.656287 1.37099,1.386522 1.941592,2.175457 0.631509,0.873177 1.163644,1.818248 1.582634,2.81109 0.331564,-0.678122 0.567251,-1.403068 0.697808,-2.146548 0.220241,-1.254545 0.137477,-2.561218 -0.239403,-3.77793 M 75.397009,24.445488 c 0.395167,2.530684 0.517709,5.103836 0.364859,7.66061 -0.15744,2.63277 -0.606884,5.247974 -1.337622,7.782214 M 72.685375,24.013974 c 0.502146,3.0593 0.735946,4.749432 0.522917,7.848934 -0.321364,4.674785 -1.795661,9.266063 -4.255909,13.254078 m 0.547186,-22.768621 c 0.569633,2.413431 0.875822,3.683502 0.911958,6.109828 0.08437,5.658112 -1.690387,11.32877 -4.985483,15.929206 m 0.836305,-23.360373 c 0.813501,2.853433 1.112718,4.116386 1.144993,7.097505 0.06047,5.581993 -1.905237,11.164211 -5.449644,15.476942 m 9.042645,17.508255 c -0.114091,0.741404 -0.10615,0.522766 -0.140028,1.302936 -0.06047,1.396292 0.233283,2.806544 0.846359,4.062502 0.359322,-0.99357 0.906465,-1.837642 1.48457,-2.721973 0.220023,-0.336504 0.933057,-1.267936 2.025667,-2.097772 M 33.169682,46.332153 c -2.092985,1.541471 -3.924711,3.436748 -5.393982,5.581075 -1.70729,2.491772 -2.935338,5.373517 -3.131391,8.387705 -0.139081,2.136895 0.248291,4.306123 1.118328,6.262825 1.437288,-1.962698 3.134305,-3.73504 5.032693,-5.2563 3.675765,-2.945588 8.048536,-4.910363 12.525562,-6.374658 1.215007,-0.397389 2.441306,-0.760244 3.676931,-1.087984 m 25.640816,-7.05079 c 6.704355,3.400401 13.275896,7.062709 19.694588,10.975771 9.075433,5.532735 17.845083,11.567006 26.255713,18.066084 M 74.696069,42.529532 c 3.474174,2.88007 7.049399,5.638143 10.717004,8.26743 5.75294,4.124239 11.730129,7.929803 17.453487,12.094951 5.49198,3.996809 10.74527,8.321706 15.72238,12.943968 -3.13977,-1.721386 -6.22111,-3.549323 -9.23702,-5.4796 C 102.15258,65.748392 95.281969,60.532489 87.511813,56.970415 82.618273,54.727057 77.411674,53.167744 72.090621,52.351903 m 27.84075,8.446012 c 0.332289,-1.420837 0.760319,-3.019412 1.218499,-4.40479 0.62292,-1.883454 1.35992,-3.726764 2.07645,-5.576631 0.74589,-1.925673 1.47627,-3.872569 2.55103,-5.635949 0.65402,-1.073136 1.43211,-2.070633 2.31366,-2.966301 -0.839,-0.01996 -1.68077,0.08027 -2.49165,0.29663 -1.83027,0.488371 -3.46069,1.554039 -4.89011,2.797197 -1.42935,1.243165 -2.6845,2.670741 -4.00879,4.02528 -1.372301,1.403665 -2.822047,2.731685 -4.340277,3.97603 M 14.464394,26.624304 c -0.404347,1.255135 -0.316411,2.661802 0.241005,3.856846 0.614679,1.317798 1.735411,2.317226 2.812284,3.294382 1.590649,1.443343 3.149386,2.922034 4.761381,4.3414 5.840804,5.142617 12.366009,9.487259 19.267658,13.082948 5.9318,3.09041 12.156113,5.636285 18.597828,7.436821 6.951846,1.9887 13.573583,3.24946 20.762281,3.331393 0.461538,0.02535 1.816281,0.144479 2.578055,0.212526 m 3.379754,0.447164 c 0.676825,0.179435 1.925345,0.594396 2.216985,0.842498 0.376224,0.332132 0.653657,0.759887 0.914333,1.188771 0.791864,1.302746 1.474226,2.668184 2.177789,4.020611 0.79587,1.529733 1.620008,3.04459 2.433146,4.56518 1.441877,2.696233 2.879165,5.452077 5.009161,7.645682 1.489086,1.533595 3.295166,2.758088 5.271006,3.573717 -0.51895,-0.887537 -0.97051,-1.814474 -1.34957,-2.770189 -0.79041,-1.992984 -1.26171,-4.101779 -1.54563,-6.226886 -0.17106,-1.279651 -0.27524,-2.568394 -0.4858,-3.842128 -0.29032,-1.756416 -0.78079,-3.472477 -1.18666,-5.205841 -0.1981,-0.845959 -0.37914,-1.55178 -0.536945,-2.406168 M 27.377254,8.7822621 c 0.405658,-0.1480272 0.839948,-0.2174947 1.271543,-0.2034409 0.248509,0.00809 0.497601,0.044004 0.732049,0.1270303 0.234302,0.082989 0.453961,0.2144858 0.622912,0.3968279 0.150082,0.1618697 0.259729,0.367948 0.276267,0.5880364 0.0102,0.1329608 -0.01457,0.267896 -0.0663,0.3906572 -0.05173,0.122761 -0.131504,0.233348 -0.228693,0.324701 -0.13296,0.1251 -0.300309,0.214471 -0.479387,0.250054 -0.179078,0.03563 -0.369449,0.01647 -0.535777,-0.05901 -0.18039,-0.08191 -0.328942,-0.228809 -0.420375,-0.404572 -0.09151,-0.175771 -0.126404,-0.3790443 -0.107462,-0.5762561 0.02186,-0.2270387 0.115039,-0.4466973 0.263154,-0.6201291 -0.182357,-0.071762 -0.371344,-0.126484 -0.5639,-0.1631593 -0.25135,-0.047866 -0.508529,-0.064987 -0.764033,-0.050707 z"
         sodipodi:nodetypes="csccscccccsccsccccccccccsccccccccccccccccccccccccccsccccccccccccsccsscsccsccscccccccccccccccccccccccscsccscsccccccccccccccscccscccscsccccscccscccsccsccccccsscccccsssccccccccscccccccccccccccccccccccccsccsccscccsccssccscsccsscsccccccccscccssccssccsccccccscc" />
      <path
         d="m 100.55545,12.463411 c 0.0357,-0.508296 0.28115,-0.998634 0.66619,-1.332398 0.47072,-0.407997 1.14477,-0.568482 1.74881,-0.416375 m 4.6285,2.503116 a 4.6046687,4.6046687 0 0 1 -4.60467,4.604669 4.6046687,4.6046687 0 0 1 -4.604671,-4.604669 4.6046687,4.6046687 0 0 1 4.604671,-4.604669 4.6046687,4.6046687 0 0 1 4.60467,4.604669 z"
         style="display:inline;fill:none;fill-opacity:1;stroke:#ffffff;stroke-width:1.93198748;stroke-linecap:round;stroke-linejoin:round;stroke-miterlimit:4;stroke-dasharray:none;stroke-opacity:1"
         id="path980-5" />
      <path
         d="m 91.829943,18.746723 c 0.02259,-0.324315 0.179369,-0.63717 0.424964,-0.850104 0.300382,-0.260319 0.730374,-0.362717 1.115851,-0.265674 m 2.953114,1.597074 a 2.9379355,2.9379355 0 0 1 -2.937887,2.937938 2.9379355,2.9379355 0 0 1 -2.93796,-2.937938 2.9379355,2.9379355 0 0 1 2.93796,-2.937924 2.9379355,2.9379355 0 0 1 2.937887,2.937924 z"
         style="display:inline;fill:none;fill-opacity:1;stroke:#ffffff;stroke-width:1.93198748;stroke-linecap:round;stroke-linejoin:round;stroke-miterlimit:4;stroke-dasharray:none;stroke-opacity:1"
         id="path1080-4" />
      <path
         id="path980-83-5"
         style="display:inline;fill:none;fill-opacity:1;stroke:#ffffff;stroke-width:1.93198748;stroke-linecap:round;stroke-linejoin:round;stroke-miterlimit:4;stroke-dasharray:none;stroke-opacity:1"
         d="m 85.589674,25.960592 c 0.01603,-0.229858 0.127132,-0.451607 0.301256,-0.602541 0.212883,-0.184506 0.517709,-0.257077 0.790917,-0.188288 m 1.908369,0.891836 a 2.0823344,2.0823344 0 0 1 -2.082348,2.082341 2.0823344,2.0823344 0 0 1 -2.082275,-2.082341 2.0823344,2.0823344 0 0 1 2.082275,-2.082334 2.0823344,2.0823344 0 0 1 2.082348,2.082334 z" />
      <path
         id="path980-2-9"
         style="display:inline;fill:none;fill-opacity:1;stroke:#ffffff;stroke-width:1.93198748;stroke-linecap:round;stroke-linejoin:round;stroke-miterlimit:4;stroke-dasharray:none;stroke-opacity:1"
         d="m 70.619674,20.470062 c 0.02404,-0.339126 0.187603,-0.666268 0.44449,-0.888943 0.314006,-0.272202 0.763742,-0.37927 1.166777,-0.277782 m 3.087967,1.670002 a 3.0721035,3.0721035 0 0 1 -3.072085,3.072101 3.0721035,3.0721035 0 0 1 -3.072159,-3.072101 3.0721035,3.0721035 0 0 1 3.072159,-3.072109 3.0721035,3.0721035 0 0 1 3.072085,3.072109 z" />
      <path
         id="path980-7-5"
         style="display:inline;fill:none;fill-opacity:1;stroke:#ffffff;stroke-width:1.93198748;stroke-linecap:round;stroke-linejoin:round;stroke-miterlimit:4;stroke-dasharray:none;stroke-opacity:1"
         d="m 82.354756,15.10469 c 0.02404,-0.340314 0.188258,-0.668614 0.446093,-0.892076 0.315098,-0.273171 0.766437,-0.380618 1.170856,-0.278773 m 3.09897,1.67591 a 3.0829734,3.0829734 0 0 1 -3.083015,3.082971 3.0829734,3.0829734 0 0 1 -3.082942,-3.082971 3.0829734,3.0829734 0 0 1 3.082942,-3.082978 3.0829734,3.0829734 0 0 1 3.083015,3.082978 z" />
      <path
         id="path980-1-9"
         style="display:inline;fill:none;fill-opacity:1;stroke:#ffffff;stroke-width:1.93198748;stroke-linecap:round;stroke-linejoin:round;stroke-miterlimit:4;stroke-dasharray:none;stroke-opacity:1"
         d="m 91.458891,9.7107801 c 0.01676,-0.236284 0.130629,-0.4642262 0.309635,-0.6193787 0.218857,-0.189664 0.532207,-0.2642605 0.812991,-0.1935545 m 1.968694,0.9441382 a 2.140527,2.140527 0 0 1 -2.140486,2.1405299 2.140527,2.140527 0 0 1 -2.14056,-2.1405299 2.140527,2.140527 0 0 1 2.14056,-2.140523 2.140527,2.140527 0 0 1 2.140486,2.140523 z" />
      <path
         id="path1112-1"
         style="display:inline;fill:none;fill-opacity:1;stroke:#ffffff;stroke-width:1.93198748;stroke-linecap:round;stroke-linejoin:round;stroke-miterlimit:4;stroke-dasharray:none;stroke-opacity:1"
         d="m 75.480137,11.910891 c 0,-0.118921 0.04881,-0.236276 0.127423,-0.32575 0.07963,-0.09085 0.19212,-0.152216 0.311602,-0.169949 m 1.674213,0.517716 a 1.5950882,1.5950882 0 0 1 -1.595092,1.595093 1.5950882,1.5950882 0 0 1 -1.595092,-1.595093 1.5950882,1.5950882 0 0 1 1.595092,-1.595085 1.5950882,1.5950882 0 0 1 1.595092,1.595085 z" />
      <path
         style="display:inline;opacity:1;fill:none;stroke:#ffffff;stroke-width:1.93198748;stroke-linecap:round;stroke-linejoin:round;stroke-miterlimit:4;stroke-dasharray:none;stroke-opacity:1"
         d="M 59.668951,20.896768 C 58.520825,26.400164 56.703087,31.774039 54.265424,36.871333 51.596809,42.451548 48.18478,47.699296 44.141315,52.442718"
         id="path1788" />
      <path
         style="display:inline;opacity:1;fill:none;stroke:#ffffff;stroke-width:1.93198748;stroke-linecap:round;stroke-linejoin:round;stroke-miterlimit:4;stroke-dasharray:none;stroke-opacity:1"
         d="m 62.889662,22.200898 c -1.337549,5.740905 -3.327298,11.149189 -5.921746,16.47417 -2.588983,5.313988 -5.77997,10.353807 -9.496753,14.999406"
         id="path1786" />
    </g>
  </g>
  <g
     style="display:inline"
     inkscape:groupmode="layer"
     id="layer4"
     inkscape:label="Bubbles" />
  <g
     style="display:inline"
     inkscape:groupmode="layer"
     id="layer6"
     inkscape:label="Harness Strap" />
</svg>
